<?xml version="1.0" encoding="UTF-8" standalone="no"?><svg xmlns="http://www.w3.org/2000/svg" xmlns:xlink="http://www.w3.org/1999/xlink" contentScriptType="application/ecmascript" contentStyleType="text/css" height="350px" preserveAspectRatio="none" style="width:505px;height:350px;" version="1.1" viewBox="0 0 505 350" width="505px" zoomAndPan="magnify"><defs><filter height="300%" id="f1vtg14t3qbt82" width="300%" x="-1" y="-1"><feGaussianBlur result="blurOut" stdDeviation="2.0"/><feColorMatrix in="blurOut" result="blurOut2" type="matrix" values="0 0 0 0 0 0 0 0 0 0 0 0 0 0 0 0 0 0 .4 0"/><feOffset dx="4.0" dy="4.0" in="blurOut2" result="blurOut3"/><feBlend in="SourceGraphic" in2="blurOut3" mode="normal"/></filter></defs><g><!--MD5=[962254f899c5370797d0ccb19bb51758]
class Musical--><rect codeLine="12" fill="#FEFECE" filter="url(#f1vtg14t3qbt82)" height="112.7754" id="Musical" style="stroke:#A80036;stroke-width:1.5;" width="189" x="159.5" y="7"/><ellipse cx="228.75" cy="23" fill="#ADD1B2" rx="11" ry="11" style="stroke:#A80036;stroke-width:1.0;"/><path d="M231.2231,29.1431 Q230.6421,29.4419 230.0029,29.5913 Q229.3638,29.7407 228.6582,29.7407 Q226.1514,29.7407 224.8315,28.0889 Q223.5117,26.437 223.5117,23.3159 Q223.5117,20.1865 224.8315,18.5347 Q226.1514,16.8828 228.6582,16.8828 Q229.3638,16.8828 230.0112,17.0322 Q230.6587,17.1816 231.2231,17.4805 L231.2231,20.2031 Q230.5923,19.6221 229.9988,19.3523 Q229.4053,19.0825 228.7744,19.0825 Q227.4297,19.0825 226.7449,20.1492 Q226.0601,21.2158 226.0601,23.3159 Q226.0601,25.4077 226.7449,26.4744 Q227.4297,27.541 228.7744,27.541 Q229.4053,27.541 229.9988,27.2712 Q230.5923,27.0015 231.2231,26.4204 Z " fill="#000000"/><text fill="#000000" font-family="sans-serif" font-size="12" lengthAdjust="spacing" textLength="42" x="249.25" y="27.5352">Musical</text><line style="stroke:#A80036;stroke-width:1.5;" x1="160.5" x2="347.5" y1="39" y2="39"/><polygon fill="none" points="170.5,45,174.5,49,170.5,53,166.5,49" style="stroke:#B38D22;stroke-width:1.0;"/><text fill="#000000" font-family="sans-serif" font-size="11" lengthAdjust="spacing" textLength="153" x="179.5" y="53.6348">Set&lt;Musical&gt; musicalPeople</text><line style="stroke:#A80036;stroke-width:1.5;" x1="160.5" x2="347.5" y1="59.9551" y2="59.9551"/><text fill="#000000" font-family="sans-serif" font-size="11" lengthAdjust="spacing" textLength="65" x="165.5" y="74.5898">String play()</text><text fill="#000000" font-family="sans-serif" font-size="11" lengthAdjust="spacing" textLength="115" x="165.5" y="87.5449">accept(Visitor visitor)</text><text fill="#000000" font-family="sans-serif" font-size="11" lengthAdjust="spacing" textLength="177" x="165.5" y="100.5">Set&lt;Musical&gt; getMusicalPeople()</text><text fill="#000000" font-family="sans-serif" font-size="11" font-style="italic" lengthAdjust="spacing" textLength="115" x="165.5" y="113.4551">boolean : isPrincipal()</text><!--MD5=[f855b3f64245172c095fd94f0019df9c]
class Orchestra--><rect fill="#FEFECE" filter="url(#f1vtg14t3qbt82)" height="48" id="Orchestra" style="stroke:#A80036;stroke-width:1.5;" width="88" x="7" y="180"/><ellipse cx="22" cy="196" fill="#ADD1B2" rx="11" ry="11" style="stroke:#A80036;stroke-width:1.0;"/><path d="M24.4731,202.1431 Q23.8921,202.4419 23.2529,202.5913 Q22.6138,202.7407 21.9082,202.7407 Q19.4014,202.7407 18.0815,201.0889 Q16.7617,199.437 16.7617,196.3159 Q16.7617,193.1865 18.0815,191.5347 Q19.4014,189.8828 21.9082,189.8828 Q22.6138,189.8828 23.2612,190.0322 Q23.9087,190.1816 24.4731,190.4805 L24.4731,193.2031 Q23.8423,192.6221 23.2488,192.3523 Q22.6553,192.0825 22.0244,192.0825 Q20.6797,192.0825 19.9949,193.1492 Q19.3101,194.2158 19.3101,196.3159 Q19.3101,198.4077 19.9949,199.4744 Q20.6797,200.541 22.0244,200.541 Q22.6553,200.541 23.2488,200.2712 Q23.8423,200.0015 24.4731,199.4204 Z " fill="#000000"/><text fill="#000000" font-family="sans-serif" font-size="12" lengthAdjust="spacing" textLength="56" x="36" y="200.5352">Orchestra</text><line style="stroke:#A80036;stroke-width:1.5;" x1="8" x2="94" y1="212" y2="212"/><line style="stroke:#A80036;stroke-width:1.5;" x1="8" x2="94" y1="220" y2="220"/><!--MD5=[622e42cb91b5bf7cd6f70c5085a00f9e]
class VocalFamily--><rect fill="#FEFECE" filter="url(#f1vtg14t3qbt82)" height="48" id="VocalFamily" style="stroke:#A80036;stroke-width:1.5;" width="99" x="130.5" y="180"/><ellipse cx="145.5" cy="196" fill="#ADD1B2" rx="11" ry="11" style="stroke:#A80036;stroke-width:1.0;"/><path d="M147.9731,202.1431 Q147.3921,202.4419 146.7529,202.5913 Q146.1138,202.7407 145.4082,202.7407 Q142.9014,202.7407 141.5815,201.0889 Q140.2617,199.437 140.2617,196.3159 Q140.2617,193.1865 141.5815,191.5347 Q142.9014,189.8828 145.4082,189.8828 Q146.1138,189.8828 146.7612,190.0322 Q147.4087,190.1816 147.9731,190.4805 L147.9731,193.2031 Q147.3423,192.6221 146.7488,192.3523 Q146.1553,192.0825 145.5244,192.0825 Q144.1797,192.0825 143.4949,193.1492 Q142.8101,194.2158 142.8101,196.3159 Q142.8101,198.4077 143.4949,199.4744 Q144.1797,200.541 145.5244,200.541 Q146.1553,200.541 146.7488,200.2712 Q147.3423,200.0015 147.9731,199.4204 Z " fill="#000000"/><text fill="#000000" font-family="sans-serif" font-size="12" lengthAdjust="spacing" textLength="67" x="159.5" y="200.5352">VocalFamily</text><line style="stroke:#A80036;stroke-width:1.5;" x1="131.5" x2="228.5" y1="212" y2="212"/><line style="stroke:#A80036;stroke-width:1.5;" x1="131.5" x2="228.5" y1="220" y2="220"/><!--MD5=[3af4981d4dacae6784a020bb15cb38c6]
class InstrumentFamily--><rect fill="#FEFECE" filter="url(#f1vtg14t3qbt82)" height="48" id="InstrumentFamily" style="stroke:#A80036;stroke-width:1.5;" width="129" x="264.5" y="180"/><ellipse cx="279.5" cy="196" fill="#ADD1B2" rx="11" ry="11" style="stroke:#A80036;stroke-width:1.0;"/><path d="M281.9731,202.1431 Q281.3921,202.4419 280.7529,202.5913 Q280.1138,202.7407 279.4082,202.7407 Q276.9014,202.7407 275.5815,201.0889 Q274.2617,199.437 274.2617,196.3159 Q274.2617,193.1865 275.5815,191.5347 Q276.9014,189.8828 279.4082,189.8828 Q280.1138,189.8828 280.7612,190.0322 Q281.4087,190.1816 281.9731,190.4805 L281.9731,193.2031 Q281.3423,192.6221 280.7488,192.3523 Q280.1553,192.0825 279.5244,192.0825 Q278.1797,192.0825 277.4949,193.1492 Q276.8101,194.2158 276.8101,196.3159 Q276.8101,198.4077 277.4949,199.4744 Q278.1797,200.541 279.5244,200.541 Q280.1553,200.541 280.7488,200.2712 Q281.3423,200.0015 281.9731,199.4204 Z " fill="#000000"/><text fill="#000000" font-family="sans-serif" font-size="12" lengthAdjust="spacing" textLength="97" x="293.5" y="200.5352">InstrumentFamily</text><line style="stroke:#A80036;stroke-width:1.5;" x1="265.5" x2="392.5" y1="212" y2="212"/><line style="stroke:#A80036;stroke-width:1.5;" x1="265.5" x2="392.5" y1="220" y2="220"/><!--MD5=[50d6a8b5a8279c6361bd7584c8967675]
class Guitar--><rect fill="#FEFECE" filter="url(#f1vtg14t3qbt82)" height="48" id="Guitar" style="stroke:#A80036;stroke-width:1.5;" width="67" x="240.5" y="288"/><ellipse cx="255.5" cy="304" fill="#ADD1B2" rx="11" ry="11" style="stroke:#A80036;stroke-width:1.0;"/><path d="M257.9731,310.1431 Q257.3921,310.4419 256.7529,310.5913 Q256.1138,310.7407 255.4082,310.7407 Q252.9014,310.7407 251.5815,309.0889 Q250.2617,307.437 250.2617,304.3159 Q250.2617,301.1865 251.5815,299.5347 Q252.9014,297.8828 255.4082,297.8828 Q256.1138,297.8828 256.7612,298.0322 Q257.4087,298.1816 257.9731,298.4805 L257.9731,301.2031 Q257.3423,300.6221 256.7488,300.3523 Q256.1553,300.0825 255.5244,300.0825 Q254.1797,300.0825 253.4949,301.1492 Q252.8101,302.2158 252.8101,304.3159 Q252.8101,306.4077 253.4949,307.4744 Q254.1797,308.541 255.5244,308.541 Q256.1553,308.541 256.7488,308.2712 Q257.3423,308.0015 257.9731,307.4204 Z " fill="#000000"/><text fill="#000000" font-family="sans-serif" font-size="12" lengthAdjust="spacing" textLength="35" x="269.5" y="308.5352">Guitar</text><line style="stroke:#A80036;stroke-width:1.5;" x1="241.5" x2="306.5" y1="320" y2="320"/><line style="stroke:#A80036;stroke-width:1.5;" x1="241.5" x2="306.5" y1="328" y2="328"/><!--MD5=[18f3b5796652df810da6fcbc778a81a9]
class Trumpet--><rect fill="#FEFECE" filter="url(#f1vtg14t3qbt82)" height="48" id="Trumpet" style="stroke:#A80036;stroke-width:1.5;" width="82" x="343" y="288"/><ellipse cx="358" cy="304" fill="#ADD1B2" rx="11" ry="11" style="stroke:#A80036;stroke-width:1.0;"/><path d="M360.4731,310.1431 Q359.8921,310.4419 359.2529,310.5913 Q358.6138,310.7407 357.9082,310.7407 Q355.4014,310.7407 354.0815,309.0889 Q352.7617,307.437 352.7617,304.3159 Q352.7617,301.1865 354.0815,299.5347 Q355.4014,297.8828 357.9082,297.8828 Q358.6138,297.8828 359.2612,298.0322 Q359.9087,298.1816 360.4731,298.4805 L360.4731,301.2031 Q359.8423,300.6221 359.2488,300.3523 Q358.6553,300.0825 358.0244,300.0825 Q356.6797,300.0825 355.9949,301.1492 Q355.3101,302.2158 355.3101,304.3159 Q355.3101,306.4077 355.9949,307.4744 Q356.6797,308.541 358.0244,308.541 Q358.6553,308.541 359.2488,308.2712 Q359.8423,308.0015 360.4731,307.4204 Z " fill="#000000"/><text fill="#000000" font-family="sans-serif" font-size="12" lengthAdjust="spacing" textLength="50" x="372" y="308.5352">Trumpet</text><line style="stroke:#A80036;stroke-width:1.5;" x1="344" x2="424" y1="320" y2="320"/><line style="stroke:#A80036;stroke-width:1.5;" x1="344" x2="424" y1="328" y2="328"/><!--MD5=[c1da5d7cf3b080854172728965cc0837]
class Vocal--><rect fill="#FEFECE" filter="url(#f1vtg14t3qbt82)" height="48" id="Vocal" style="stroke:#A80036;stroke-width:1.5;" width="63" x="428.5" y="180"/><ellipse cx="443.5" cy="196" fill="#ADD1B2" rx="11" ry="11" style="stroke:#A80036;stroke-width:1.0;"/><path d="M445.9731,202.1431 Q445.3921,202.4419 444.7529,202.5913 Q444.1138,202.7407 443.4082,202.7407 Q440.9014,202.7407 439.5815,201.0889 Q438.2617,199.437 438.2617,196.3159 Q438.2617,193.1865 439.5815,191.5347 Q440.9014,189.8828 443.4082,189.8828 Q444.1138,189.8828 444.7612,190.0322 Q445.4087,190.1816 445.9731,190.4805 L445.9731,193.2031 Q445.3423,192.6221 444.7488,192.3523 Q444.1553,192.0825 443.5244,192.0825 Q442.1797,192.0825 441.4949,193.1492 Q440.8101,194.2158 440.8101,196.3159 Q440.8101,198.4077 441.4949,199.4744 Q442.1797,200.541 443.5244,200.541 Q444.1553,200.541 444.7488,200.2712 Q445.3423,200.0015 445.9731,199.4204 Z " fill="#000000"/><text fill="#000000" font-family="sans-serif" font-size="12" lengthAdjust="spacing" textLength="31" x="457.5" y="200.5352">Vocal</text><line style="stroke:#A80036;stroke-width:1.5;" x1="429.5" x2="490.5" y1="212" y2="212"/><line style="stroke:#A80036;stroke-width:1.5;" x1="429.5" x2="490.5" y1="220" y2="220"/><!--MD5=[d2942949530061fd5ce74d3559b63efb]
reverse link Musical to Orchestra--><path codeLine="1" d="M155.89,131.44 C130.3,148.9 104.42,166.55 84.77,179.96 " fill="none" id="Musical-backto-Orchestra" style="stroke:#A80036;stroke-width:1.0;"/><polygon fill="none" points="152.14,125.52,172.6,120.04,160.03,137.09,152.14,125.52" style="stroke:#A80036;stroke-width:1.0;"/><!--MD5=[d2a1ddec2620d551d081124d6f801842]
reverse link Musical to VocalFamily--><path codeLine="3" d="M214.77,137.92 C206.61,153.2 198.59,168.21 192.31,179.96 " fill="none" id="Musical-backto-VocalFamily" style="stroke:#A80036;stroke-width:1.0;"/><polygon fill="none" points="208.73,134.38,224.33,120.04,221.08,140.97,208.73,134.38" style="stroke:#A80036;stroke-width:1.0;"/><!--MD5=[0a5f56ac3c8fbe7896e4f2327ca61300]
reverse link Musical to InstrumentFamily--><path codeLine="4" d="M293.76,137.92 C302.03,153.2 310.16,168.21 316.52,179.96 " fill="none" id="Musical-backto-InstrumentFamily" style="stroke:#A80036;stroke-width:1.0;"/><polygon fill="none" points="287.44,140.96,284.07,120.04,299.75,134.29,287.44,140.96" style="stroke:#A80036;stroke-width:1.0;"/><!--MD5=[81676c686e38e4614fce4583bc00ec8b]
reverse link InstrumentFamily to Guitar--><path codeLine="6" d="M307.68,246.09 C300.36,260.2 292.43,275.48 286.1,287.68 " fill="none" id="InstrumentFamily-backto-Guitar" style="stroke:#A80036;stroke-width:1.0;"/><polygon fill="none" points="301.64,242.53,317.07,228,314.07,248.98,301.64,242.53" style="stroke:#A80036;stroke-width:1.0;"/><!--MD5=[daef566aa7ff49b3353e2102b8072b81]
reverse link InstrumentFamily to Trumpet--><path codeLine="7" d="M350.32,246.09 C357.64,260.2 365.57,275.48 371.9,287.68 " fill="none" id="InstrumentFamily-backto-Trumpet" style="stroke:#A80036;stroke-width:1.0;"/><polygon fill="none" points="343.93,248.98,340.93,228,356.36,242.53,343.93,248.98" style="stroke:#A80036;stroke-width:1.0;"/><!--MD5=[517b633b8e4ecc0d4fb3424dbe7e4689]
reverse link Musical to Vocal--><path codeLine="8" d="M353.4,131.33 C380.56,149.59 408.06,168.08 428.32,181.7 " fill="none" id="Musical-backto-Vocal" style="stroke:#A80036;stroke-width:1.0;"/><polygon fill="none" points="349.29,137,336.6,120.04,357.1,125.39,349.29,137" style="stroke:#A80036;stroke-width:1.0;"/><!--MD5=[902cf93bedbd21e6943b081397ea050b]
@startuml "Class diagram"
Musical <|- - Orchestra

Musical <|- - VocalFamily
Musical <|- - InstrumentFamily

InstrumentFamily <|- - Guitar
InstrumentFamily <|- - Trumpet
Musical <|- - Vocal

abstract class Musical

class Musical {
    # Set<Musical> musicalPeople

    String play()
    accept(Visitor visitor)
    Set<Musical> getMusicalPeople()
    {abstract} boolean : isPrincipal()
}

@enduml

PlantUML version 1.2021.00(Sun Jan 10 11:25:05 CET 2021)
(GPL source distribution)
Java Runtime: OpenJDK Runtime Environment
JVM: Eclipse OpenJ9 VM
Default Encoding: UTF-8
Language: en
Country: US
--></g></svg>